<?xml version="1.0" encoding="UTF-8" standalone="no"?>
<svg
   xmlns:dc="http://purl.org/dc/elements/1.1/"
   xmlns:cc="http://creativecommons.org/ns#"
   xmlns:rdf="http://www.w3.org/1999/02/22-rdf-syntax-ns#"
   xmlns:svg="http://www.w3.org/2000/svg"
   xmlns="http://www.w3.org/2000/svg"
   xmlns:sodipodi="http://sodipodi.sourceforge.net/DTD/sodipodi-0.dtd"
   xmlns:inkscape="http://www.inkscape.org/namespaces/inkscape"
   version="1.1"
   id="Web__x2F__IT_Audit"
   x="0px"
   y="0px"
   width="100px"
   height="100px"
   viewBox="5.0 -10.0 100.0 135.0"
   enable-background="new 0 0 100 100"
   xml:space="preserve"
   inkscape:version="0.48.4 r9939"
   sodipodi:docname="audit.svg"><metadata
     id="metadata3310"><rdf:RDF><cc:Work
         rdf:about=""><dc:format>image/svg+xml</dc:format><dc:type
           rdf:resource="http://purl.org/dc/dcmitype/StillImage" /></cc:Work></rdf:RDF></metadata><defs
     id="defs3308" /><sodipodi:namedview
     pagecolor="#ffffff"
     bordercolor="#666666"
     borderopacity="1"
     objecttolerance="10"
     gridtolerance="10"
     guidetolerance="10"
     inkscape:pageopacity="0"
     inkscape:pageshadow="2"
     inkscape:window-width="952"
     inkscape:window-height="522"
     id="namedview3306"
     showgrid="false"
     inkscape:zoom="2.36"
     inkscape:cx="50"
     inkscape:cy="50"
     inkscape:window-x="960"
     inkscape:window-y="20"
     inkscape:window-maximized="0"
     inkscape:current-layer="Web__x2F__IT_Audit" /><rect
     x="31.336962"
     y="81.143776"
     width="9.5936537"
     height="10.964175"
     id="rect3270" /><rect
     x="14.890697"
     y="94.848991"
     width="26.039917"
     height="2.7410438"
     id="rect3272" /><g
     id="g3274"
     transform="matrix(1.370522,0,0,1.370522,-12.519742,-12.051714)"><path
       d="M 39,61 H 12.272 C 11.271,61 11,60.758 11,59.757 V 25.922 C 11,24.921 11.271,25 12.272,25 H 39 V 20 H 8.676 C 7.198,20 6,20.848 6,22.326 V 63.353 C 6,64.831 7.198,66 8.676,66 H 39 v -5 z"
       id="path3276"
       inkscape:connector-curvature="0" /></g><path
     d="M 72.45262,41.398642 H 57.376878 V 26.3229 H 72.45262 V 41.398642 z M 60.117922,38.657598 h 9.593654 v -9.593654 h -9.593654 v 9.593654 z"
     id="path3278"
     inkscape:connector-curvature="0" /><rect
     x="76.564186"
     y="29.063946"
     width="28.780962"
     height="2.7410438"
     id="rect3280" /><rect
     x="76.564186"
     y="34.546032"
     width="24.669395"
     height="2.7410438"
     id="rect3282" /><path
     d="M 72.45262,64.697515 H 57.376878 V 49.621774 H 72.45262 V 64.697515 z M 60.117922,61.956471 h 9.593654 v -9.593653 h -9.593654 v 9.593653 z"
     id="path3284"
     inkscape:connector-curvature="0" /><rect
     x="76.564186"
     y="55.103863"
     width="21.92835"
     height="2.7410438"
     id="rect3286" /><rect
     x="76.564186"
     y="60.585949"
     width="26.039917"
     height="2.7410438"
     id="rect3288" /><path
     d="M 72.45262,87.996388 H 57.376878 V 72.920647 H 72.45262 V 87.996388 z M 60.117922,85.255345 h 9.593654 v -9.593654 h -9.593654 v 9.593654 z"
     id="path3290"
     inkscape:connector-curvature="0" /><rect
     x="76.564186"
     y="75.66169"
     width="23.298874"
     height="2.7410438"
     id="rect3292" /><rect
     x="76.564186"
     y="49.621773"
     width="27.410439"
     height="2.7410438"
     id="rect3294" /><rect
     x="76.564186"
     y="81.143776"
     width="15.075742"
     height="2.7410438"
     id="rect3296" /><path
     d="M 5.2970438,31.99275 V 68.809081 H 40.930615 V 56.44012 c 0,0 -11.63025,6.496274 -19.383292,-3.841573 C 19.228399,49.50665 20.529025,43.553102 15.744533,38.105278 12.322339,34.207513 5.2970438,31.99275 5.2970438,31.99275 z"
     id="path3298"
     inkscape:connector-curvature="0" /><path
     d="M 111.82772,9.8766372 H 96.26955 c 0,-1.370522 -1.16083,-2.741044 -2.59303,-2.741044 H 71.637159 c -1.432195,0 -2.593028,1.370522 -2.593028,2.741044 H 50.894309 c -2.147608,0 -4.481607,1.5020918 -4.481607,3.5359468 v 85.974209 c 0,2.035227 2.333999,3.685337 4.481607,3.685337 h 60.933411 c 2.1476,0 4.4816,-1.65011 4.4816,-3.683967 V 13.412584 c 0,-2.033855 -2.334,-3.5359468 -4.4816,-3.5359468 z M 91.08487,11.025134 c 0.71541,0 1.29651,0.579731 1.29651,1.296514 0,0.715413 -0.57973,1.296514 -1.29651,1.296514 -0.71679,0 -1.29652,-0.581101 -1.29652,-1.296514 0,-0.716783 0.57973,-1.296514 1.29652,-1.296514 z m -16.854683,0 c 0.715412,0 1.296513,0.579731 1.296513,1.296514 0,0.715413 -0.57973,1.296514 -1.296513,1.296514 -0.716783,0 -1.296514,-0.581101 -1.296514,-1.296514 0,-0.716783 0.581101,-1.296514 1.296514,-1.296514 z m 36.597043,85.564429 c 0,0 -0.29603,1.00048 -1.59254,1.00048 H 53.487337 c -1.296514,0 -1.592547,-1.00048 -1.592547,-1.00048 V 16.211189 c 0,-1.296513 1.592547,-0.852464 1.592547,-0.852464 h 15.556794 c 0,1.370522 1.160833,2.741044 2.593028,2.741044 H 93.67652 c 1.4322,0 2.59303,-1.370522 2.59303,-2.741044 h 12.96377 c 0,0 1.59254,-0.444049 1.59254,0.852464 v 80.378374 z"
     id="path3300"
     inkscape:connector-curvature="0" /></svg>