<svg xmlns="http://www.w3.org/2000/svg" xmlns:xlink="http://www.w3.org/1999/xlink" version="1.1" x="0px" y="0px" width="100px" height="100px" viewBox="0 0 100 100" enable-background="new 0 0 100 100" xml:space="preserve">
<g id="BoundingBox" display="none">
	
		<rect x="5" y="5" display="inline" fill="#000000" stroke="#000000" stroke-width="0.5" stroke-miterlimit="10" width="90" height="90"/>
</g>
<g id="Layer_1">
	<g>
		<polygon fill="none" points="40.128,52.426 33.536,67.261 28.843,65.175 34.96,51.409 30.887,43.086 12.938,82.682 80.019,82.682     53.295,24.477   "/>
		<path fill="none" d="M90.44,56.047l-1.252-0.923l0.706-1.386c0.144-0.281,0.257-0.573,0.339-0.869    c0.638-2.333-0.71-4.746-3.005-5.374c-1.11-0.305-2.313-0.135-3.313,0.458l-1.02,0.604L63.864,35.187l9.455,20.595l4.984,10.494    l0.009,0.38l1.463,3.188c0.479,0.422,1.049,0.746,1.697,0.924c0.368,0.1,0.746,0.151,1.123,0.151c1.948,0,3.675-1.337,4.198-3.25    c0.152-0.555,0.194-1.125,0.127-1.697l-0.208-1.766l1.758-0.264c1.71-0.256,3.113-1.513,3.575-3.201    C92.524,58.995,91.879,57.109,90.44,56.047z"/>
		<path d="M93.706,54.065c0.022-0.075,0.045-0.15,0.065-0.226c1.172-4.287-1.329-8.721-5.575-9.883    c-1.668-0.457-3.454-0.346-5.047,0.295L60.826,28.568l-7.471-16.271L37.75,45.423l-7.041-14.386L4.97,87.818h83.059l-6.095-13.275    c0.221,0.019,0.44,0.044,0.662,0.044c3.597,0,6.779-2.448,7.737-5.951c0.133-0.484,0.22-0.976,0.261-1.471    c2.409-0.889,4.293-2.903,4.991-5.457C96.33,58.989,95.578,56.078,93.706,54.065z M12.938,82.682l17.948-39.596l4.073,8.323    l-6.117,13.767l4.693,2.086l6.592-14.835l13.167-27.949l26.724,58.205H12.938z M92.046,60.741    c-0.462,1.688-1.865,2.945-3.575,3.201l-1.758,0.264l0.208,1.766c0.067,0.572,0.025,1.142-0.127,1.697    c-0.523,1.914-2.25,3.25-4.198,3.25c-0.377,0-0.755-0.051-1.123-0.151c-0.648-0.178-1.219-0.502-1.697-0.924l-1.463-3.188    l-0.009-0.38l-4.984-10.494l-9.455-20.595l19.032,13.371l1.02-0.604c0.999-0.593,2.202-0.762,3.313-0.458    c2.295,0.628,3.643,3.041,3.005,5.374c-0.082,0.296-0.195,0.588-0.339,0.869l-0.706,1.386l1.252,0.923    C91.879,57.109,92.524,58.995,92.046,60.741z"/>
	</g>
</g>
</svg>