<?xml version="1.0" encoding="UTF-8" standalone="no"?>
<svg
   xmlns:dc="http://purl.org/dc/elements/1.1/"
   xmlns:cc="http://creativecommons.org/ns#"
   xmlns:rdf="http://www.w3.org/1999/02/22-rdf-syntax-ns#"
   xmlns:svg="http://www.w3.org/2000/svg"
   xmlns="http://www.w3.org/2000/svg"
   xmlns:sodipodi="http://sodipodi.sourceforge.net/DTD/sodipodi-0.dtd"
   xmlns:inkscape="http://www.inkscape.org/namespaces/inkscape"
   version="1.1"
   id="Layer_1"
   x="0px"
   y="0px"
   width="100"
   height="100"
   viewBox="1 -2 100 135"
   enable-background="new 0 0 20 20"
   xml:space="preserve"
   inkscape:version="0.48.4 r9939"
   sodipodi:docname="certificate.svg"><metadata
     id="metadata111"><rdf:RDF><cc:Work
         rdf:about=""><dc:format>image/svg+xml</dc:format><dc:type
           rdf:resource="http://purl.org/dc/dcmitype/StillImage" /></cc:Work></rdf:RDF></metadata><defs
     id="defs109" /><sodipodi:namedview
     pagecolor="#ffffff"
     bordercolor="#666666"
     borderopacity="1"
     objecttolerance="10"
     gridtolerance="10"
     guidetolerance="10"
     inkscape:pageopacity="0"
     inkscape:pageshadow="2"
     inkscape:window-width="952"
     inkscape:window-height="522"
     id="namedview107"
     showgrid="false"
     fit-margin-top="0"
     fit-margin-left="0"
     fit-margin-right="0"
     fit-margin-bottom="0"
     inkscape:zoom="2.95"
     inkscape:cx="105.29926"
     inkscape:cy="28.394913"
     inkscape:window-x="960"
     inkscape:window-y="20"
     inkscape:window-maximized="0"
     inkscape:current-layer="Layer_1" /><rect
     x="-23.757036"
     y="59.498997"
     display="none"
     width="198"
     height="87"
     id="rect3"
     style="fill:#000000;display:none" /><rect
     x="21.910133"
     y="55.640381"
     width="56.379417"
     height="4.0388646"
     id="rect5" /><rect
     x="21.910133"
     y="63.804474"
     width="56.379417"
     height="4.0388646"
     id="rect7" /><rect
     x="21.910133"
     y="71.882195"
     width="24.150843"
     height="4.0388646"
     id="rect9" /><rect
     x="21.910133"
     y="79.95993"
     width="20.111979"
     height="4.0388646"
     id="rect11" /><rect
     x="21.910133"
     y="88.124023"
     width="20.111979"
     height="4.0408731"
     id="rect13" /><rect
     x="21.910133"
     y="39.651619"
     width="15.820058"
     height="4.3762732"
     id="rect15" /><rect
     x="42.190804"
     y="39.651619"
     width="15.820058"
     height="4.3762732"
     id="rect17" /><rect
     x="62.469482"
     y="39.651619"
     width="15.820058"
     height="4.3762732"
     id="rect19" /><polygon
     points="-123,19.717 -111.004,19.717 -111.004,39.049 -117.15,33.125 -123,39.049 "
     id="polygon21"
     transform="matrix(2.0083862,0,0,2.0083862,297.13132,46.166824)" /><circle
     cx="-117.002"
     cy="20.891001"
     r="7.4520001"
     id="circle23"
     sodipodi:cx="-117.002"
     sodipodi:cy="20.891001"
     sodipodi:rx="7.4520001"
     sodipodi:ry="7.4520001"
     transform="matrix(2.0083862,0,0,2.0083862,297.13132,46.166824)" /><path
     d="M 96.887202,7.0032946 H 3.3124714 c -2.97642815,0 -5.3864916,2.408055 -5.3864916,5.3864924 V 122.12197 c 0,2.97443 2.40805505,5.3865 5.3864916,5.3865 H 46.06097 v -4.58113 H 3.3124714 c -0.4418449,0 -0.8053629,-0.36352 -0.8053629,-0.80335 V 12.391795 c 0,-0.441845 0.363518,-0.805363 0.8053629,-0.805363 H 96.887202 c 0.441841,0 0.805355,0.363518 0.805355,0.805363 V 122.12399 c 0,0.44185 -0.363514,0.80335 -0.805355,0.80335 H 78.289543 v 4.57912 h 18.597659 c 2.976429,0 5.386488,-2.41006 5.386488,-5.38649 V 12.387778 c 0,-2.9764284 -2.410059,-5.3844834 -5.386488,-5.3844834 z"
     id="path25"
     inkscape:connector-curvature="0" /><path
     d="M 90.492496,111.01159 V 24.841781 c 0,-2.976429 -2.408054,-5.386492 -5.386491,-5.386492 H 15.429064 c -2.976427,0 -5.386491,2.408056 -5.386491,5.386492 v 86.169809 c 0,2.97643 2.410064,5.38649 5.386491,5.38649 h 30.629898 v -4.58113 H 15.429064 c -0.441844,0 -0.803354,-0.36352 -0.803354,-0.80335 V 24.843789 c 0,-0.441844 0.363518,-0.805363 0.803354,-0.805363 h 69.676941 c 0.441844,0 0.805363,0.363519 0.805363,0.805363 V 111.0136 c 0,0.44184 -0.363519,0.80335 -0.805363,0.80335 h -6.816462 v 4.58113 h 6.816462 c 2.978437,0 5.386491,-2.40805 5.386491,-5.38649 z"
     id="path27"
     inkscape:connector-curvature="0" /></svg>