<?xml version="1.0" encoding="UTF-8" standalone="no"?>
<svg
   xmlns:dc="http://purl.org/dc/elements/1.1/"
   xmlns:cc="http://creativecommons.org/ns#"
   xmlns:rdf="http://www.w3.org/1999/02/22-rdf-syntax-ns#"
   xmlns:svg="http://www.w3.org/2000/svg"
   xmlns="http://www.w3.org/2000/svg"
   xmlns:sodipodi="http://sodipodi.sourceforge.net/DTD/sodipodi-0.dtd"
   xmlns:inkscape="http://www.inkscape.org/namespaces/inkscape"
   version="1.1"
   width="96"
   height="96"
   viewBox="4.8 -9.6 96.0 129.6"
   id="svg3107"
   inkscape:version="0.48.4 r9939"
   sodipodi:docname="cpu.svg">
  <metadata
     id="metadata3185">
    <rdf:RDF>
      <cc:Work
         rdf:about="">
        <dc:format>image/svg+xml</dc:format>
        <dc:type
           rdf:resource="http://purl.org/dc/dcmitype/StillImage" />
      </cc:Work>
    </rdf:RDF>
  </metadata>
  <defs
     id="defs3183" />
  <sodipodi:namedview
     pagecolor="#ffffff"
     bordercolor="#666666"
     borderopacity="1"
     objecttolerance="10"
     gridtolerance="10"
     guidetolerance="10"
     inkscape:pageopacity="0"
     inkscape:pageshadow="2"
     inkscape:window-width="952"
     inkscape:window-height="522"
     id="namedview3181"
     showgrid="false"
     inkscape:zoom="2.4583333"
     inkscape:cx="71.847383"
     inkscape:cy="55.123926"
     inkscape:window-x="960"
     inkscape:window-y="20"
     inkscape:window-maximized="0"
     inkscape:current-layer="svg3107" />
  <path
     d="M 93.229584,95.67889 H 14.851772 c -1.347119,0 -2.449307,-1.102187 -2.449307,-2.449306 V 14.851772 c 0,-1.352017 1.102188,-2.449307 2.449307,-2.449307 h 78.377812 c 1.347119,0 2.449306,1.09729 2.449306,2.449307 v 78.377812 c 0,1.347119 -1.102187,2.449306 -2.449306,2.449306 z M 17.301078,90.780278 h 73.4792 v -73.4792 h -73.4792 v 73.4792 z"
     id="path3109"
     inkscape:connector-curvature="0"
     style="fill:#000000" />
  <path
     d="M 78.533744,80.983051 H 29.547611 c -1.347117,0 -2.449306,-1.102188 -2.449306,-2.449307 V 29.547611 c 0,-1.352016 1.102189,-2.449306 2.449306,-2.449306 h 48.986133 c 1.347119,0 2.449307,1.09729 2.449307,2.449306 v 48.986133 c 0,1.347119 -1.102188,2.449307 -2.449307,2.449307 z M 31.996919,76.084438 H 76.084438 V 31.996919 H 31.996919 v 44.087519 z"
     id="path3111"
     inkscape:connector-curvature="0"
     style="fill:#000000" />
  <path
     d="m 19.750386,14.851772 c -1.347119,0 -2.449308,-1.097289 -2.449308,-2.449307 V 2.6052388 c 0,-1.3520172 1.102189,-2.4493066 2.449308,-2.4493066 1.347117,0 2.449306,1.0972894 2.449306,2.4493066 v 9.7972262 c 0,1.352018 -1.102189,2.449307 -2.449306,2.449307 z"
     id="path3113"
     inkscape:connector-curvature="0"
     style="fill:#000000" />
  <path
     d="m 29.547611,14.851772 c -1.347117,0 -2.449306,-1.097289 -2.449306,-2.449307 V 2.6052388 c 0,-1.3520172 1.102189,-2.4493066 2.449306,-2.4493066 1.347119,0 2.449308,1.0972894 2.449308,2.4493066 v 9.7972262 c 0,1.352018 -1.102189,2.449307 -2.449308,2.449307 z"
     id="path3115"
     inkscape:connector-curvature="0"
     style="fill:#000000" />
  <path
     d="m 39.344838,14.851772 c -1.347119,0 -2.449306,-1.097289 -2.449306,-2.449307 V 2.6052388 c 0,-1.3520172 1.102187,-2.4493066 2.449306,-2.4493066 1.347119,0 2.449307,1.0972894 2.449307,2.4493066 v 9.7972262 c 0,1.352018 -1.102188,2.449307 -2.449307,2.449307 z"
     id="path3117"
     inkscape:connector-curvature="0"
     style="fill:#000000" />
  <path
     d="m 49.142065,14.851772 c -1.347119,0 -2.449306,-1.097289 -2.449306,-2.449307 V 2.6052388 c 0,-1.3520172 1.102187,-2.4493066 2.449306,-2.4493066 1.347119,0 2.449306,1.0972894 2.449306,2.4493066 v 9.7972262 c 0,1.352018 -1.102187,2.449307 -2.449306,2.449307 z"
     id="path3119"
     inkscape:connector-curvature="0"
     style="fill:#000000" />
  <path
     d="m 58.939292,14.851772 c -1.347119,0 -2.449308,-1.097289 -2.449308,-2.449307 V 2.6052388 c 0,-1.3520172 1.102189,-2.4493066 2.449308,-2.4493066 1.347118,0 2.449306,1.0972894 2.449306,2.4493066 v 9.7972262 c 0,1.352018 -1.102188,2.449307 -2.449306,2.449307 z"
     id="path3121"
     inkscape:connector-curvature="0"
     style="fill:#000000" />
  <path
     d="m 68.736518,14.851772 c -1.347119,0 -2.449307,-1.097289 -2.449307,-2.449307 V 2.6052388 c 0,-1.3520172 1.102188,-2.4493066 2.449307,-2.4493066 1.347118,0 2.449306,1.0972894 2.449306,2.4493066 v 9.7972262 c 0,1.352018 -1.102188,2.449307 -2.449306,2.449307 z"
     id="path3123"
     inkscape:connector-curvature="0"
     style="fill:#000000" />
  <path
     d="m 78.533744,14.851772 c -1.347118,0 -2.449306,-1.097289 -2.449306,-2.449307 V 2.6052388 c 0,-1.3520172 1.102188,-2.4493066 2.449306,-2.4493066 1.347119,0 2.449307,1.0972894 2.449307,2.4493066 v 9.7972262 c 0,1.352018 -1.102188,2.449307 -2.449307,2.449307 z"
     id="path3125"
     inkscape:connector-curvature="0"
     style="fill:#000000" />
  <path
     d="m 88.330971,14.851772 c -1.347119,0 -2.449306,-1.097289 -2.449306,-2.449307 V 2.6052388 c 0,-1.3520172 1.102187,-2.4493066 2.449306,-2.4493066 1.347119,0 2.449307,1.0972894 2.449307,2.4493066 v 9.7972262 c 0,1.352018 -1.102188,2.449307 -2.449307,2.449307 z"
     id="path3127"
     inkscape:connector-curvature="0"
     style="fill:#000000" />
  <path
     d="m 19.750386,107.92542 c -1.347119,0 -2.449308,-1.10218 -2.449308,-2.44931 v -9.79722 c 0,-1.347118 1.102189,-2.449306 2.449308,-2.449306 1.347117,0 2.449306,1.102188 2.449306,2.449306 v 9.79722 c 0,1.34713 -1.102189,2.44931 -2.449306,2.44931 z"
     id="path3129"
     inkscape:connector-curvature="0"
     style="fill:#000000" />
  <path
     d="m 29.547611,107.92542 c -1.347117,0 -2.449306,-1.10218 -2.449306,-2.44931 v -9.79722 c 0,-1.347118 1.102189,-2.449306 2.449306,-2.449306 1.347119,0 2.449308,1.102188 2.449308,2.449306 v 9.79722 c 0,1.34713 -1.102189,2.44931 -2.449308,2.44931 z"
     id="path3131"
     inkscape:connector-curvature="0"
     style="fill:#000000" />
  <path
     d="m 39.344838,107.92542 c -1.347119,0 -2.449306,-1.10218 -2.449306,-2.44931 v -9.79722 c 0,-1.347118 1.102187,-2.449306 2.449306,-2.449306 1.347119,0 2.449307,1.102188 2.449307,2.449306 v 9.79722 c 0,1.34713 -1.102188,2.44931 -2.449307,2.44931 z"
     id="path3133"
     inkscape:connector-curvature="0"
     style="fill:#000000" />
  <path
     d="m 49.142065,107.92542 c -1.347119,0 -2.449306,-1.10218 -2.449306,-2.44931 v -9.79722 c 0,-1.347118 1.102187,-2.449306 2.449306,-2.449306 1.347119,0 2.449306,1.102188 2.449306,2.449306 v 9.79722 c 0,1.34713 -1.102187,2.44931 -2.449306,2.44931 z"
     id="path3135"
     inkscape:connector-curvature="0"
     style="fill:#000000" />
  <path
     d="m 58.939292,107.92542 c -1.347119,0 -2.449308,-1.10218 -2.449308,-2.44931 v -9.79722 c 0,-1.347118 1.102189,-2.449306 2.449308,-2.449306 1.347118,0 2.449306,1.102188 2.449306,2.449306 v 9.79722 c 0,1.34713 -1.102188,2.44931 -2.449306,2.44931 z"
     id="path3137"
     inkscape:connector-curvature="0"
     style="fill:#000000" />
  <path
     d="m 68.736518,107.92542 c -1.347119,0 -2.449307,-1.10218 -2.449307,-2.44931 v -9.79722 c 0,-1.347118 1.102188,-2.449306 2.449307,-2.449306 1.347118,0 2.449306,1.102188 2.449306,2.449306 v 9.79722 c 0,1.34713 -1.102188,2.44931 -2.449306,2.44931 z"
     id="path3139"
     inkscape:connector-curvature="0"
     style="fill:#000000" />
  <path
     d="m 78.533744,107.92542 c -1.347118,0 -2.449306,-1.10218 -2.449306,-2.44931 v -9.79722 c 0,-1.347118 1.102188,-2.449306 2.449306,-2.449306 1.347119,0 2.449307,1.102188 2.449307,2.449306 v 9.79722 c 0,1.34713 -1.102188,2.44931 -2.449307,2.44931 z"
     id="path3141"
     inkscape:connector-curvature="0"
     style="fill:#000000" />
  <path
     d="m 88.330971,107.92542 c -1.347119,0 -2.449306,-1.10218 -2.449306,-2.44931 v -9.79722 c 0,-1.347118 1.102187,-2.449306 2.449306,-2.449306 1.347119,0 2.449307,1.102188 2.449307,2.449306 v 9.79722 c 0,1.34713 -1.102188,2.44931 -2.449307,2.44931 z"
     id="path3143"
     inkscape:connector-curvature="0"
     style="fill:#000000" />
  <path
     d="M 12.402465,90.780278 H 2.6052388 c -1.3471186,0 -2.4493066,-1.102188 -2.4493066,-2.449307 0,-1.347119 1.102188,-2.449306 2.4493066,-2.449306 h 9.7972262 c 1.347119,0 2.449307,1.102187 2.449307,2.449306 0,1.347119 -1.102188,2.449307 -2.449307,2.449307 z"
     id="path3145"
     inkscape:connector-curvature="0"
     style="fill:#000000" />
  <path
     d="M 12.402465,80.983051 H 2.6052388 c -1.3471186,0 -2.4493066,-1.102188 -2.4493066,-2.449307 0,-1.347118 1.102188,-2.449306 2.4493066,-2.449306 h 9.7972262 c 1.347119,0 2.449307,1.102188 2.449307,2.449306 0,1.347119 -1.102188,2.449307 -2.449307,2.449307 z"
     id="path3147"
     inkscape:connector-curvature="0"
     style="fill:#000000" />
  <path
     d="M 12.402465,71.185824 H 2.6052388 c -1.3471186,0 -2.4493066,-1.102188 -2.4493066,-2.449306 0,-1.347119 1.102188,-2.449307 2.4493066,-2.449307 h 9.7972262 c 1.347119,0 2.449307,1.102188 2.449307,2.449307 0,1.347118 -1.102188,2.449306 -2.449307,2.449306 z"
     id="path3149"
     inkscape:connector-curvature="0"
     style="fill:#000000" />
  <path
     d="M 12.402465,61.388598 H 2.6052388 c -1.3471186,0 -2.4493066,-1.102188 -2.4493066,-2.449306 0,-1.347119 1.102188,-2.449308 2.4493066,-2.449308 h 9.7972262 c 1.347119,0 2.449307,1.102189 2.449307,2.449308 0,1.347118 -1.102188,2.449306 -2.449307,2.449306 z"
     id="path3151"
     inkscape:connector-curvature="0"
     style="fill:#000000" />
  <path
     d="M 12.402465,51.591371 H 2.6052388 c -1.3471186,0 -2.4493066,-1.097289 -2.4493066,-2.449306 0,-1.352018 1.102188,-2.449306 2.4493066,-2.449306 h 9.7972262 c 1.347119,0 2.449307,1.097288 2.449307,2.449306 0,1.352017 -1.102188,2.449306 -2.449307,2.449306 z"
     id="path3153"
     inkscape:connector-curvature="0"
     style="fill:#000000" />
  <path
     d="M 12.402465,41.794145 H 2.6052388 c -1.3471186,0 -2.4493066,-1.097289 -2.4493066,-2.449307 0,-1.352018 1.102188,-2.449306 2.4493066,-2.449306 h 9.7972262 c 1.347119,0 2.449307,1.097288 2.449307,2.449306 0,1.352018 -1.102188,2.449307 -2.449307,2.449307 z"
     id="path3155"
     inkscape:connector-curvature="0"
     style="fill:#000000" />
  <path
     d="M 12.402465,31.996919 H 2.6052388 c -1.3471186,0 -2.4493066,-1.09729 -2.4493066,-2.449308 0,-1.352016 1.102188,-2.449306 2.4493066,-2.449306 h 9.7972262 c 1.347119,0 2.449307,1.09729 2.449307,2.449306 0,1.352018 -1.102188,2.449308 -2.449307,2.449308 z"
     id="path3157"
     inkscape:connector-curvature="0"
     style="fill:#000000" />
  <path
     d="M 12.402465,22.199692 H 2.6052388 c -1.3471186,0 -2.4493066,-1.09729 -2.4493066,-2.449306 0,-1.352018 1.102188,-2.449308 2.4493066,-2.449308 h 9.7972262 c 1.347119,0 2.449307,1.09729 2.449307,2.449308 0,1.352016 -1.102188,2.449306 -2.449307,2.449306 z"
     id="path3159"
     inkscape:connector-curvature="0"
     style="fill:#000000" />
  <path
     d="m 105.47611,90.780278 h -9.79722 c -1.347118,0 -2.449306,-1.102188 -2.449306,-2.449307 0,-1.347119 1.102188,-2.449306 2.449306,-2.449306 h 9.79722 c 1.34713,0 2.44931,1.102187 2.44931,2.449306 0,1.347119 -1.10218,2.449307 -2.44931,2.449307 z"
     id="path3161"
     inkscape:connector-curvature="0"
     style="fill:#000000" />
  <path
     d="m 105.47611,80.983051 h -9.79722 c -1.347118,0 -2.449306,-1.102188 -2.449306,-2.449307 0,-1.347118 1.102188,-2.449306 2.449306,-2.449306 h 9.79722 c 1.34713,0 2.44931,1.102188 2.44931,2.449306 0,1.347119 -1.10218,2.449307 -2.44931,2.449307 z"
     id="path3163"
     inkscape:connector-curvature="0"
     style="fill:#000000" />
  <path
     d="m 105.47611,71.185824 h -9.79722 c -1.347118,0 -2.449306,-1.102188 -2.449306,-2.449306 0,-1.347119 1.102188,-2.449307 2.449306,-2.449307 h 9.79722 c 1.34713,0 2.44931,1.102188 2.44931,2.449307 0,1.347118 -1.10218,2.449306 -2.44931,2.449306 z"
     id="path3165"
     inkscape:connector-curvature="0"
     style="fill:#000000" />
  <path
     d="m 105.47611,61.388598 h -9.79722 c -1.347118,0 -2.449306,-1.102188 -2.449306,-2.449306 0,-1.347119 1.102188,-2.449308 2.449306,-2.449308 h 9.79722 c 1.34713,0 2.44931,1.102189 2.44931,2.449308 0,1.347118 -1.10218,2.449306 -2.44931,2.449306 z"
     id="path3167"
     inkscape:connector-curvature="0"
     style="fill:#000000" />
  <path
     d="m 105.47611,51.591371 h -9.79722 c -1.347118,0 -2.449306,-1.097289 -2.449306,-2.449306 0,-1.352018 1.102188,-2.449306 2.449306,-2.449306 h 9.79722 c 1.34713,0 2.44931,1.097288 2.44931,2.449306 0,1.352017 -1.10218,2.449306 -2.44931,2.449306 z"
     id="path3169"
     inkscape:connector-curvature="0"
     style="fill:#000000" />
  <path
     d="m 105.47611,41.794145 h -9.79722 c -1.347118,0 -2.449306,-1.097289 -2.449306,-2.449307 0,-1.352018 1.102188,-2.449306 2.449306,-2.449306 h 9.79722 c 1.34713,0 2.44931,1.097288 2.44931,2.449306 0,1.352018 -1.10218,2.449307 -2.44931,2.449307 z"
     id="path3171"
     inkscape:connector-curvature="0"
     style="fill:#000000" />
  <path
     d="m 105.47611,31.996919 h -9.79722 c -1.347118,0 -2.449306,-1.09729 -2.449306,-2.449308 0,-1.352016 1.102188,-2.449306 2.449306,-2.449306 h 9.79722 c 1.34713,0 2.44931,1.09729 2.44931,2.449306 0,1.352018 -1.10218,2.449308 -2.44931,2.449308 z"
     id="path3173"
     inkscape:connector-curvature="0"
     style="fill:#000000" />
  <path
     d="m 105.47611,22.199692 h -9.79722 c -1.347118,0 -2.449306,-1.09729 -2.449306,-2.449306 0,-1.352018 1.102188,-2.449308 2.449306,-2.449308 h 9.79722 c 1.34713,0 2.44931,1.09729 2.44931,2.449308 0,1.352016 -1.10218,2.449306 -2.44931,2.449306 z"
     id="path3175"
     inkscape:connector-curvature="0"
     style="fill:#000000" />
</svg>
