<svg xmlns="http://www.w3.org/2000/svg" xmlns:xlink="http://www.w3.org/1999/xlink" version="1.1" x="0px" y="0px" width="100px" height="100px" viewBox="0 0 100 100" enable-background="new 0 0 100 100" xml:space="preserve">
<g id="Captions">
</g>
<g id="Your_Icon">
	<g>
		<path d="M71.667,22.883l-17.336,1.711l-2.784,3.588l-2.897-6.599l-15.494-6.271L0.574,29.623l14.297,32.555l16.109,6.625    l14.399-6.471l15.513,12.251l16.624-1.735l22.054-27.929L71.667,22.883z M92.956,43.997l-11.062,1.3L59.348,27.49l11.294-1.114    L92.956,43.997z M60.9,70.289l-22.16-17.5l-0.179-0.15c-0.062-0.068-0.126-0.136-0.195-0.198l-0.286-0.209    c-0.212-0.123-0.399-0.278-0.577-0.445l17.917-23.095l23.606,18.641L60.9,70.289z M33.21,18.975l10.192,4.125l-25.819,11.34    L7.205,30.396L33.21,18.975z M5.98,33.541l10.377,4.044L27.91,63.892l-10.497-4.318L5.98,33.541z M31.94,64.671L19.846,37.133    l26.781-11.763l2.566,5.845l-1.615,2.082c-0.507-1.929-2.25-3.364-4.337-3.364c-2.481,0-4.5,2.019-4.5,4.5    c0,2.47,2.001,4.479,4.467,4.497l-8.82,11.368c-2.011,0.448-3.522,2.241-3.522,4.386c0,2.482,2.019,4.5,4.5,4.5    c1.492,0,2.818-0.743,3.637-1.888l3.391,2.679L31.94,64.671z M75.748,69.64L64.812,70.78l17.478-22.132l11.062-1.3L75.748,69.64z"/>
		<path d="M60.116,37.809c0-2.481-2.019-4.5-4.501-4.5c-2.48,0-4.499,2.019-4.499,4.5s2.019,4.5,4.499,4.5    C58.098,42.309,60.116,40.29,60.116,37.809z"/>
		<path d="M62.366,50.184c0-2.482-2.019-4.5-4.501-4.5c-2.48,0-4.499,2.019-4.499,4.5s2.019,4.5,4.499,4.5    C60.348,54.684,62.366,52.666,62.366,50.184z"/>
		<path d="M60.116,56.934c-2.481,0-4.501,2.019-4.501,4.5c0,2.482,2.02,4.5,4.501,4.5s4.5-2.018,4.5-4.5    C64.616,58.952,62.598,56.934,60.116,56.934z"/>
		<path d="M34.241,41.184c0-2.481-2.019-4.5-4.5-4.5c-2.481,0-4.5,2.019-4.5,4.5c0,2.481,2.019,4.5,4.5,4.5    C32.222,45.684,34.241,43.665,34.241,41.184z"/>
	</g>
</g>
</svg>