<?xml version="1.0" encoding="UTF-8" standalone="no"?>
<!-- Created with Inkscape (http://www.inkscape.org/) -->

<svg
   xmlns:dc="http://purl.org/dc/elements/1.1/"
   xmlns:cc="http://creativecommons.org/ns#"
   xmlns:rdf="http://www.w3.org/1999/02/22-rdf-syntax-ns#"
   xmlns:svg="http://www.w3.org/2000/svg"
   xmlns="http://www.w3.org/2000/svg"
   xmlns:sodipodi="http://sodipodi.sourceforge.net/DTD/sodipodi-0.dtd"
   xmlns:inkscape="http://www.inkscape.org/namespaces/inkscape"
   id="svg2"
   version="1.1"
   inkscape:version="0.48.4 r9939"
   width="584.275"
   height="68.25"
   xml:space="preserve"
   sodipodi:docname="kickstarter-logo-light.eps"><metadata
     id="metadata8"><rdf:RDF><cc:Work
         rdf:about=""><dc:format>image/svg+xml</dc:format><dc:type
           rdf:resource="http://purl.org/dc/dcmitype/StillImage" /><dc:title></dc:title></cc:Work></rdf:RDF></metadata><defs
     id="defs6" /><sodipodi:namedview
     pagecolor="#ffffff"
     bordercolor="#666666"
     borderopacity="1"
     objecttolerance="10"
     gridtolerance="10"
     guidetolerance="10"
     inkscape:pageopacity="0"
     inkscape:pageshadow="2"
     inkscape:window-width="1912"
     inkscape:window-height="1032"
     id="namedview4"
     showgrid="false"
     inkscape:zoom="0.66749387"
     inkscape:cx="292.13751"
     inkscape:cy="34.125"
     inkscape:window-x="0"
     inkscape:window-y="40"
     inkscape:window-maximized="0"
     inkscape:current-layer="g10" /><g
     id="g10"
     inkscape:groupmode="layer"
     inkscape:label="ink_ext_XXXXXX"
     transform="matrix(1.25,0,0,-1.25,0,68.25)"><g
       id="g12"
       transform="scale(0.1,0.1)"><path
         d="m 1395.03,356.699 96.38,139.649 c 18.22,26.289 41.74,39.453 70.59,39.453 23.52,0 43.88,-8.36 61.09,-25.039 17.2,-16.711 25.8,-36.688 25.8,-59.961 0,-17.207 -4.55,-32.383 -13.66,-45.547 l -86.9,-126.348 106.25,-134.707 c 10.62,-13.418 15.94,-29.101 15.94,-47.0506 0,-23.789 -8.35,-44.207 -25.04,-61.289 -16.71,-17.0781 -36.94,-25.6133 -60.71,-25.6133 -26.07,0 -45.92,8.4648 -59.59,25.4297 l -130.15,162.4022 0,-89.551 c 0,-25.5582 -4.42,-45.4098 -13.28,-59.5817 -16.19,-25.8008 -39.72,-38.6992 -70.58,-38.6992 -28.08,0 -49.84,9.4805 -65.27,28.457 -14.42,17.461 -21.63,40.6055 -21.63,69.4419 l 0,332.043 c 0,27.304 7.34,49.82 22.01,67.527 15.43,18.723 36.68,28.086 63.75,28.086 25.81,0 47.3,-9.363 64.51,-28.086 9.61,-10.383 15.68,-20.867 18.21,-31.492 1.53,-6.575 2.28,-18.84 2.28,-36.809 l 0,-82.715 z M 956.742,546.043 c 62.988,0.254 120.918,-20.867 173.788,-63.367 41.49,-33.387 62.23,-67.93 62.23,-103.594 0,-30.352 -12.65,-53.887 -37.94,-70.574 -14.42,-9.629 -30.11,-14.426 -47.05,-14.426 -13.92,0 -27.2,3.289 -39.85,9.863 -5.31,2.785 -18.47,15.559 -39.46,38.332 -19.49,21.25 -43.894,31.883 -73.233,31.883 -28.336,0 -52.059,-9.812 -71.149,-29.414 -19.105,-19.609 -28.652,-43.574 -28.652,-71.914 0,-28.086 9.547,-51.922 28.652,-71.531 19.09,-19.61 42.688,-29.406 70.766,-29.406 23.265,0 44.898,7.843 64.886,23.527 12.39,11.883 24.67,23.769 36.81,35.672 13.15,11.386 29.85,17.082 50.09,17.082 23.27,0 43.45,-8.164 60.52,-24.492 17.07,-16.301 25.61,-36.106 25.61,-59.375 0,-31.621 -18.59,-63.625 -55.78,-95.9965 C 1084.87,22.7734 1024.66,0 956.355,0 914.109,0 874.266,8.98438 836.832,26.9453 789.52,49.7188 751.895,83.1641 723.945,127.316 c -27.965,44.129 -41.933,92.391 -41.933,144.766 0,78.406 29.086,145.195 87.281,200.34 51.344,48.582 113.828,73.117 187.449,73.621 z m -307.293,-116.121 0,-321.395 c 0,-27.8317 -7.207,-50.7223 -21.629,-68.6832 -15.433,-19.7344 -36.804,-29.5977 -64.129,-29.5977 -25.043,0 -46.168,9.2266 -63.371,27.6953 -14.418,15.4375 -21.625,38.9649 -21.625,70.5856 l 0,321.395 c 0,35.93 7.207,61.984 21.625,78.183 16.442,18.469 37.571,27.696 63.371,27.696 25.805,0 46.922,-9.11 63.375,-27.336 14.922,-16.676 22.383,-42.867 22.383,-78.543 z m -478.691,-73.223 96.383,139.649 c 18.211,26.289 41.738,39.453 70.586,39.453 23.523,0 43.878,-8.36 61.086,-25.039 17.199,-16.711 25.804,-36.688 25.804,-59.961 0,-17.207 -4.554,-32.383 -13.66,-45.547 L 324.059,278.906 430.309,144.199 c 10.625,-13.418 15.937,-29.101 15.937,-47.0506 0,-23.789 -8.351,-44.207 -25.047,-61.289 -16.695,-17.0781 -36.937,-25.6133 -60.715,-25.6133 -26.054,0 -45.91,8.4648 -59.57,25.4297 l -130.156,162.4022 0,-89.551 c 0,-25.5582 -4.43,-45.4098 -13.281,-59.5817 C 141.285,23.1445 117.758,10.2461 86.8945,10.2461 58.8164,10.2461 37.0547,19.7266 21.625,38.7031 7.20703,56.1641 0,79.3086 0,108.145 l 0,332.043 c 0,27.304 7.33594,49.82 22.0078,67.527 15.4297,18.723 36.6758,28.086 63.75,28.086 25.8012,0 47.3052,-9.363 64.5122,-28.086 9.609,-10.383 15.675,-20.867 18.21,-31.492 1.516,-6.575 2.278,-18.84 2.278,-36.809 l 0,-82.715"
         style="fill:#1b2116;fill-opacity:1;fill-rule:nonzero;stroke:none"
         id="path14" /><path
         d="m 4617.27,213.633 40.22,-64.5 c 11.14,-17.961 16.7,-36.438 16.7,-55.4025 0,-24.043 -8.3,-43.9532 -24.86,-59.7657 -16.56,-15.8085 -36.86,-23.7187 -60.9,-23.7187 -30.87,0 -54.27,13.1523 -70.19,39.4727 l -71.34,116.8632 0,-70.2031 c 0,-24.0351 -7.92,-44.3945 -23.72,-61.0859 -15.81,-16.6992 -35.74,-25.0469 -59.77,-25.0469 -29.35,0 -51.6,10.4961 -66.78,31.5 -13.67,18.4609 -20.49,42.7461 -20.49,72.8559 l 0,319.121 c 0,65.515 35.29,98.277 105.87,98.277 l 108.52,0 c 35.68,0 68.81,-10.309 99.42,-30.926 30.6,-20.625 52.99,-47.371 67.16,-80.261 10.63,-24.786 15.94,-49.7 15.94,-74.739 0,-46.804 -18.58,-90.957 -55.78,-132.441 z m -549.38,-39.461 77.61,0 c 32.07,0 55.93,-6.582 71.57,-19.727 18.44,-15.695 27.66,-35.929 27.66,-60.7145 0,-25.3008 -9.25,-45.7891 -27.71,-61.4727 C 4202.6,20.1094 4178.95,14.043 4146.07,14.043 l -133.19,0 c -31.38,0 -52.88,2.4023 -64.52,7.207 -22.77,9.3555 -37.82,24.6602 -45.15,45.918 -4.56,13.664 -6.83,36.047 -6.83,67.168 l 0,281.543 c 0,23.535 0.76,39.336 2.27,47.441 2.78,16.434 9.49,30.352 20.12,41.739 12.13,12.91 27.57,21.125 46.29,24.679 8.85,1.504 26.81,2.262 53.88,2.262 l 102.08,0 c 27.82,0 44.02,-0.254 48.58,-0.758 18.21,-1.769 33.12,-7.082 44.76,-15.929 20.74,-15.692 31.12,-36.184 31.12,-61.477 0,-27.313 -9.09,-48.191 -27.26,-62.613 -16.16,-12.903 -38.23,-19.356 -66.27,-19.356 l -84.06,0 0,-35.285 66.99,0 c 19.66,0 35.94,-5.184 48.81,-15.566 13.61,-11.121 20.44,-26.426 20.44,-45.899 0,-41.238 -25.12,-61.863 -75.32,-61.863 l -60.92,0 0,-39.082 z m -506.19,198.836 -45.16,0 c -25.05,0 -45.78,6.828 -62.23,20.488 -17.46,14.668 -26.19,34.277 -26.19,58.82 0,14.668 4.12,28.766 12.33,42.313 8.23,13.527 18.85,23.144 31.88,28.836 13.03,5.695 43.94,8.535 92.77,8.535 l 172.29,0 c 42.23,0 69.56,-2.527 81.95,-7.586 13.66,-5.566 24.74,-15.125 33.21,-28.641 8.47,-13.546 12.71,-27.777 12.71,-42.695 0,-23.527 -9.36,-44.023 -28.08,-61.484 -13.41,-12.395 -35.28,-18.586 -65.64,-18.586 l -39.09,0 0,-258.035 c 0,-28.0785 -4.81,-49.8246 -14.42,-65.2542 -16.19,-25.8125 -39.6,-38.711 -70.19,-38.711 -30.61,0 -54.14,11.7656 -70.59,35.293 -10.38,14.668 -15.55,36.9219 -15.55,66.7772 l 0,259.93 z m -202.93,-159.375 40.22,-64.5 c 11.13,-17.961 16.7,-36.438 16.7,-55.4025 0,-24.043 -8.29,-43.9532 -24.86,-59.7657 -16.57,-15.8085 -36.86,-23.7187 -60.88,-23.7187 -30.88,0 -54.27,13.1523 -70.22,39.4727 l -71.35,116.8632 0,-70.2031 c 0,-24.0351 -7.89,-44.3945 -23.7,-61.0859 -15.82,-16.6992 -35.74,-25.0469 -59.77,-25.0469 -29.35,0 -51.6,10.4961 -66.78,31.5 -13.66,18.4609 -20.49,42.7461 -20.49,72.8559 l 0,319.121 c 0,65.515 35.29,98.277 105.87,98.277 l 108.53,0 c 35.66,0 68.81,-10.309 99.41,-30.926 30.61,-20.625 53,-47.371 67.17,-80.261 10.61,-24.786 15.94,-49.7 15.94,-74.739 0,-46.804 -18.6,-90.957 -55.79,-132.441 z M 2649.38,81.2031 c -8.11,-19.2187 -16.45,-33.5156 -25.05,-42.8711 -17.2,-18.7226 -38.07,-28.0859 -62.61,-28.0859 -30.1,0 -53.5,12.1367 -70.19,36.4336 -9.87,14.4141 -14.8,30.5976 -14.8,48.5664 0,14.9179 3.54,29.9879 10.63,45.1559 l 162.02,344.93 c 15.68,33.633 41.86,50.469 78.54,50.469 37.2,0 63.88,-17.324 80.07,-51.992 L 2971.55,136.23 c 6.58,-13.925 9.86,-27.703 9.86,-41.3667 0,-20.2344 -6.59,-38.2031 -19.74,-53.875 -17.2,-20.5078 -39.21,-30.7422 -66.02,-30.7422 -22.01,0 -40.35,6.8359 -55.03,20.4961 -10.88,10.0976 -21.75,26.9336 -32.63,50.4609 l -158.61,0 z m -415.14,291.8049 -45.15,0 c -25.05,0 -45.79,6.828 -62.23,20.488 -17.46,14.668 -26.2,34.277 -26.2,58.82 0,14.668 4.13,28.766 12.34,42.313 8.22,13.527 18.85,23.144 31.88,28.836 13.03,5.695 43.95,8.535 92.78,8.535 l 172.28,0 c 42.23,0 69.57,-2.527 81.96,-7.586 13.66,-5.566 24.73,-15.125 33.19,-28.641 8.49,-13.546 12.73,-27.777 12.73,-42.695 0,-23.527 -9.37,-44.023 -28.09,-61.484 -13.4,-12.395 -35.29,-18.586 -65.64,-18.586 l -39.1,0 0,-258.035 c 0,-28.0785 -4.79,-49.8246 -14.41,-65.2542 -16.2,-25.8125 -39.59,-38.711 -70.19,-38.711 -30.62,0 -54.15,11.7656 -70.59,35.293 -10.37,14.668 -15.56,36.9219 -15.56,66.7772 l 0,259.93 z M 1777.37,209.844 c 18.98,0 39.21,-8.348 60.72,-25.047 26.8,-21.008 45.15,-31.484 55.02,-31.484 14.67,0 22,7.578 22,22.753 0,8.348 -4.3,15.43 -12.89,21.258 -4.56,3.039 -30.12,12.754 -76.66,29.219 -76.14,26.809 -114.21,76.398 -114.21,148.75 0,54.629 20.1,97.766 60.33,129.383 35.16,27.57 78.68,41.367 130.54,41.367 44.77,0 83.73,-10.691 116.87,-32.059 33.14,-21.375 49.71,-48.898 49.71,-82.539 0,-20.242 -6.26,-37.129 -18.78,-50.656 -12.53,-13.531 -28.79,-20.293 -48.77,-20.293 -21,0 -44.27,9.984 -69.82,29.965 -15.93,12.391 -27.95,18.594 -36.04,18.594 -13.92,0 -20.88,-6.828 -20.88,-20.481 0,-12.91 17.2,-24.676 51.61,-35.293 47.56,-14.929 84.36,-33.144 110.42,-54.636 34.66,-28.848 52,-69.329 52,-121.438 0,-56.68 -19.49,-100.9375 -58.45,-132.8125 C 1993.92,14.8047 1946.86,0 1888.93,0 1831,0 1783.06,15.4219 1745.12,46.3008 c -30.35,24.5312 -45.54,53.2305 -45.54,86.1332 0,22.011 7.46,40.339 22.4,55.019 14.91,14.668 33.39,22.137 55.39,22.391"
         style="fill:#59c35e;fill-opacity:1;fill-rule:nonzero;stroke:none"
         id="path16" /></g></g></svg>