<?xml version="1.0" encoding="UTF-8" standalone="no"?>
<!-- Created with Inkscape (http://www.inkscape.org/) -->

<svg
   xmlns:dc="http://purl.org/dc/elements/1.1/"
   xmlns:cc="http://creativecommons.org/ns#"
   xmlns:rdf="http://www.w3.org/1999/02/22-rdf-syntax-ns#"
   xmlns:svg="http://www.w3.org/2000/svg"
   xmlns="http://www.w3.org/2000/svg"
   xmlns:sodipodi="http://sodipodi.sourceforge.net/DTD/sodipodi-0.dtd"
   xmlns:inkscape="http://www.inkscape.org/namespaces/inkscape"
   width="600"
   height="330"
   id="svg2"
   version="1.1"
   inkscape:version="0.48.4 r9939"
   sodipodi:docname="OneRNGdataflow.svg">
  <defs
     id="defs4" />
  <sodipodi:namedview
     id="base"
     pagecolor="#ffffff"
     bordercolor="#666666"
     borderopacity="1.0"
     inkscape:pageopacity="0.0"
     inkscape:pageshadow="2"
     inkscape:zoom="1.979899"
     inkscape:cx="223.68222"
     inkscape:cy="154.095"
     inkscape:document-units="px"
     inkscape:current-layer="layer1"
     showgrid="false"
     showguides="true"
     inkscape:guide-bbox="true"
     inkscape:snap-global="false"
     inkscape:window-width="1912"
     inkscape:window-height="1052"
     inkscape:window-x="0"
     inkscape:window-y="20"
     inkscape:window-maximized="0"
     fit-margin-top="0"
     fit-margin-left="0"
     fit-margin-right="0"
     fit-margin-bottom="0">
    <sodipodi:guide
       orientation="0,1"
       position="273.21868,123.24021"
       id="guide4614" />
    <sodipodi:guide
       orientation="1,0"
       position="131.39663,123.24021"
       id="guide4876" />
    <inkscape:grid
       type="xygrid"
       id="grid4878"
       empspacing="5"
       visible="true"
       enabled="true"
       snapvisiblegridlinesonly="true"
       originx="-14.674799px"
       originy="-745.99606px" />
    <sodipodi:guide
       position="-14.674799,-745.99606"
       orientation="0,744.09448"
       id="guide4950" />
    <sodipodi:guide
       position="729.41968,-745.99606"
       orientation="-1052.3622,0"
       id="guide4952" />
    <sodipodi:guide
       position="729.41968,306.36614"
       orientation="0,-744.09448"
       id="guide4954" />
    <sodipodi:guide
       position="-14.674799,306.36614"
       orientation="1052.3622,0"
       id="guide4956" />
    <sodipodi:guide
       orientation="0,1"
       position="453.05342,191.92898"
       id="guide3860" />
    <sodipodi:guide
       orientation="1,0"
       position="36.365492,21.213204"
       id="guide3862" />
  </sodipodi:namedview>
  <metadata
     id="metadata7">
    <rdf:RDF>
      <cc:Work
         rdf:about="">
        <dc:format>image/svg+xml</dc:format>
        <dc:type
           rdf:resource="http://purl.org/dc/dcmitype/StillImage" />
        <dc:title />
      </cc:Work>
    </rdf:RDF>
  </metadata>
  <g
     inkscape:label="Layer 1"
     inkscape:groupmode="layer"
     id="layer1"
     transform="translate(-14.674799,23.633884)">
    <g
       style="fill:#b59494;fill-opacity:1;stroke:#ffffff;stroke-opacity:1;display:none"
       id="BoundingBox"
       display="none"
       transform="translate(53.990513,23.69566)">
      <rect
         style="fill:#b59494;fill-opacity:1;stroke:#ffffff;stroke-width:0.5;stroke-miterlimit:10;stroke-opacity:1;display:inline"
         x="5"
         y="5"
         display="inline"
         stroke-miterlimit="10"
         width="90"
         height="90"
         id="rect4338" />
    </g>
    <g
       id="Captions"
       style="fill:#3b2626;fill-opacity:1;stroke:#ffffff;stroke-opacity:1"
       transform="translate(478.9904,102.39513)" />
    <g
       id="Your_Icon"
       style="fill:#3b2626;fill-opacity:1;stroke:#ffffff;stroke-opacity:1"
       transform="translate(478.9904,102.39513)">
      <g
         id="g3065"
         style="fill:#3b2626;fill-opacity:1;stroke:#ffffff;stroke-opacity:1">
        <path
           inkscape:connector-curvature="0"
           d="M 71.667,22.883 54.331,24.594 51.547,28.182 48.65,21.583 33.156,15.312 0.574,29.623 14.871,62.178 30.98,68.803 45.379,62.332 60.892,74.583 77.516,72.848 99.57,44.919 71.667,22.883 z M 92.956,43.997 81.894,45.297 59.348,27.49 70.642,26.376 92.956,43.997 z M 60.9,70.289 38.74,52.789 38.561,52.639 C 38.499,52.571 38.435,52.503 38.366,52.441 L 38.08,52.232 C 37.868,52.109 37.681,51.954 37.503,51.787 L 55.42,28.692 79.026,47.333 60.9,70.289 z M 33.21,18.975 43.402,23.1 17.583,34.44 7.205,30.396 33.21,18.975 z M 5.98,33.541 16.357,37.585 27.91,63.892 17.413,59.574 5.98,33.541 z M 31.94,64.671 19.846,37.133 46.627,25.37 l 2.566,5.845 -1.615,2.082 c -0.507,-1.929 -2.25,-3.364 -4.337,-3.364 -2.481,0 -4.5,2.019 -4.5,4.5 0,2.47 2.001,4.479 4.467,4.497 l -8.82,11.368 c -2.011,0.448 -3.522,2.241 -3.522,4.386 0,2.482 2.019,4.5 4.5,4.5 1.492,0 2.818,-0.743 3.637,-1.888 l 3.391,2.679 -10.454,4.696 z M 75.748,69.64 64.812,70.78 82.29,48.648 93.352,47.348 75.748,69.64 z"
           id="path3067"
           style="fill:#3b2626;fill-opacity:1;stroke:#ffffff;stroke-opacity:1" />
        <path
           inkscape:connector-curvature="0"
           d="m 60.116,37.809 c 0,-2.481 -2.019,-4.5 -4.501,-4.5 -2.48,0 -4.499,2.019 -4.499,4.5 0,2.481 2.019,4.5 4.499,4.5 2.483,0 4.501,-2.019 4.501,-4.5 z"
           id="path3069"
           style="fill:#3b2626;fill-opacity:1;stroke:#ffffff;stroke-opacity:1" />
        <path
           inkscape:connector-curvature="0"
           d="m 62.366,50.184 c 0,-2.482 -2.019,-4.5 -4.501,-4.5 -2.48,0 -4.499,2.019 -4.499,4.5 0,2.481 2.019,4.5 4.499,4.5 2.483,0 4.501,-2.018 4.501,-4.5 z"
           id="path3071"
           style="fill:#3b2626;fill-opacity:1;stroke:#ffffff;stroke-opacity:1" />
        <path
           inkscape:connector-curvature="0"
           d="m 60.116,56.934 c -2.481,0 -4.501,2.019 -4.501,4.5 0,2.482 2.02,4.5 4.501,4.5 2.481,0 4.5,-2.018 4.5,-4.5 0,-2.482 -2.018,-4.5 -4.5,-4.5 z"
           id="path3073"
           style="fill:#3b2626;fill-opacity:1;stroke:#ffffff;stroke-opacity:1" />
        <path
           inkscape:connector-curvature="0"
           d="m 34.241,41.184 c 0,-2.481 -2.019,-4.5 -4.5,-4.5 -2.481,0 -4.5,2.019 -4.5,4.5 0,2.481 2.019,4.5 4.5,4.5 2.481,0 4.5,-2.019 4.5,-4.5 z"
           id="path3075"
           style="fill:#3b2626;fill-opacity:1;stroke:#ffffff;stroke-opacity:1" />
      </g>
    </g>
    <path
       id="path3778"
       d="m 235.60633,142.87463 c -0.578,0 -1.151,-0.22 -1.592,-0.659 l -9.076,-9.076 c -0.879,-0.879 -0.879,-2.303 0,-3.182 0.879,-0.879 2.303,-0.879 3.183,0 l 9.075,9.076 c 0.879,0.879 0.879,2.303 0,3.182 -0.44,0.439 -1.014,0.659 -1.59,0.659 z"
       inkscape:connector-curvature="0"
       style="fill:#3b2626;fill-opacity:1;stroke:#ffffff;stroke-opacity:1" />
    <path
       id="path3780"
       d="m 241.30633,137.17363 c -0.577,0 -1.151,-0.22 -1.591,-0.659 l -10.975,-10.983 c -0.879,-0.879 -0.879,-2.304 0,-3.183 0.879,-0.882 2.303,-0.876 3.182,0 l 10.975,10.984 c 0.879,0.879 0.879,2.303 0,3.182 -0.44,0.439 -1.017,0.659 -1.591,0.659 z"
       inkscape:connector-curvature="0"
       style="fill:#3b2626;fill-opacity:1;stroke:#ffffff;stroke-opacity:1" />
    <path
       id="path3782"
       d="m 229.07733,147.76163 c -0.577,0 -1.154,-0.22 -1.595,-0.662 l -6.393,-6.409 c -0.876,-0.88 -0.876,-2.304 0.006,-3.183 0.883,-0.873 2.307,-0.879 3.182,0.006 l 6.394,6.41 c 0.876,0.879 0.876,2.303 -0.006,3.183 -0.438,0.435 -1.015,0.655 -1.588,0.655 z"
       inkscape:connector-curvature="0"
       style="fill:#3b2626;fill-opacity:1;stroke:#ffffff;stroke-opacity:1" />
    <path
       id="path3784"
       d="m 202.85733,174.84063 c -0.609,0 -1.217,-0.246 -1.658,-0.729 -0.842,-0.914 -0.779,-2.338 0.138,-3.18 l 14.767,-13.544 -10.247,-10.288 c -0.875,-0.882 -0.873,-2.306 0.006,-3.182 0.88,-0.876 2.304,-0.876 3.183,0.006 l 11.899,11.95 c 0.435,0.434 0.672,1.025 0.656,1.638 -0.015,0.613 -0.277,1.195 -0.729,1.608 l -16.493,15.129 c -0.434,0.396 -0.979,0.592 -1.522,0.592 z"
       inkscape:connector-curvature="0"
       style="fill:#3b2626;fill-opacity:1;stroke:#ffffff;stroke-opacity:1" />
    <path
       id="path3786"
       d="m 224.00933,153.15363 c -0.573,0 -1.147,-0.221 -1.588,-0.656 l -7.465,-7.43 c -0.879,-0.877 -0.886,-2.301 -0.006,-3.183 0.879,-0.882 2.303,-0.882 3.182,-0.006 l 7.465,7.43 c 0.88,0.876 0.886,2.3 0.007,3.183 -0.441,0.441 -1.018,0.662 -1.595,0.662 z"
       inkscape:connector-curvature="0"
       style="fill:#3b2626;fill-opacity:1;stroke:#ffffff;stroke-opacity:1" />
    <path
       id="path3788"
       d="M 236.28733,116.60863"
       inkscape:connector-curvature="0"
       style="fill:#3b2626;fill-opacity:1;stroke:#ffffff;stroke-opacity:1" />
    <path
       id="path3790"
       d="m 207.79333,147.72363 0,0 c -1.702,0 -3.363,-0.229 -4.939,-0.683 -0.699,-0.202 -1.307,-0.776 -1.547,-1.468 -0.486,-1.397 -0.041,-2.254 4.312,-8.317 0.523,-0.729 0.935,-1.295 1.066,-1.509 1.215,-2.051 1.657,-4.529 2.129,-7.151 0.592,-3.284 1.201,-6.68 3.396,-9.618 3.4,-4.556 9.275,-6.964 16.986,-6.964 2.152,0 4.421,0.188 6.74,0.554 2.508,0.398 3.967,1.463 4.34,3.155 0.453,2.052 -0.979,4.207 -4.254,6.404 -3.668,2.467 -6.584,4.688 -7.945,8.864 -1.772,5.414 -3.782,11.55 -10.635,14.541 -3.35,1.457 -6.596,2.192 -9.649,2.192 z m -0.861,-4.524 c 0.284,0.015 0.571,0.022 0.861,0.022 l 0,0 c 2.432,0 5.074,-0.608 7.854,-1.815 4.652,-2.033 6.25,-5.998 8.153,-11.812 1.8,-5.521 5.622,-8.452 9.712,-11.203 0.779,-0.521 1.346,-0.999 1.731,-1.377 -0.003,0 -0.007,0 -0.013,-0.003 -2.086,-0.331 -4.119,-0.498 -6.035,-0.498 -4.348,0 -10.197,0.896 -13.383,5.156 -1.556,2.086 -2.047,4.821 -2.568,7.72 -0.521,2.903 -1.061,5.903 -2.692,8.66 -0.132,0.223 -0.627,0.923 -1.28,1.831 -0.556,0.776 -1.526,2.13 -2.34,3.319 z"
       inkscape:connector-curvature="0"
       style="fill:#3b2626;fill-opacity:1;stroke:#ffffff;stroke-opacity:1" />
    <path
       id="path3792"
       d="m 211.30333,182.67163 c -0.447,0 -0.898,-0.136 -1.295,-0.41 -1.014,-0.718 -1.257,-2.121 -0.542,-3.138 0.265,-0.372 6.558,-9.252 15.278,-17.969 3.601,-3.604 7.23,-7.282 10.523,-10.625 5.93,-6.016 10.613,-10.768 12.459,-12.353 1.283,-1.104 1.264,-1.948 1.258,-2.224 -0.045,-1.62 -1.894,-3.41 -2.537,-3.911 l -11.554,-11.524 c -0.88,-0.879 -0.88,-2.303 0,-3.182 0.879,-0.879 2.303,-0.879 3.182,0 l 11.238,11.235 c 0.793,0.636 4.058,3.472 4.168,7.238 0.045,1.494 -0.41,3.706 -2.82,5.78 -1.705,1.465 -6.562,6.394 -12.188,12.101 -3.302,3.348 -6.938,7.033 -10.547,10.646 -8.452,8.446 -14.719,17.291 -14.78,17.382 -0.44,0.623 -1.134,0.954 -1.843,0.954 z"
       inkscape:connector-curvature="0"
       style="fill:#3b2626;fill-opacity:1;stroke:#ffffff;stroke-opacity:1" />
    <path
       inkscape:connector-curvature="0"
       d="M 128.99809,270.93755 H 83.681094 c -4.441,0 -6.17,-1.729 -6.17,-6.17 v -28.504 c 0,-4.442 1.729,-6.171 6.17,-6.171 h 45.315996 c 4.441,0 6.17,1.729 6.17,6.171 v 28.504 c 0.001,4.441 -1.728,6.17 -6.169,6.17 z m -46.786996,-4.577 c 0.129,0 0.548,0.076 1.471,0.076 h 45.315996 c 1.137,0 1.512,-0.111 1.614,-0.152 -0.056,-0.006 0.056,-0.381 0.056,-1.518 v -28.503 c 0,-1.138 -0.111,-1.513 -0.152,-1.612 -0.021,0.041 -0.372,-0.059 -1.518,-0.059 H 83.681094 c -1.14,0 -1.512,0.114 -1.611,0.155 0.056,0.003 -0.059,0.375 -0.059,1.516 v 28.504 c 0,1.143 0.114,1.512 0.155,1.611 0.001,-0.012 0.015,-0.018 0.045,-0.018 z"
       id="path4160"
       style="fill:#3b2626;fill-opacity:1;stroke:#ffffff;stroke-opacity:1" />
    <path
       inkscape:connector-curvature="0"
       d="m 114.37309,222.07655 c -1.954,0 -3.545,-1.591 -3.545,-3.545 0,-1.957 1.591,-3.548 3.545,-3.548 1.954,0 3.545,1.591 3.545,3.548 0,1.954 -1.591,3.545 -3.545,3.545 z m 0,-4.5 c -0.527,0 -0.955,0.428 -0.955,0.955 0,0.524 0.428,0.952 0.955,0.952 0.527,0 0.955,-0.428 0.955,-0.952 0,-0.527 -0.428,-0.955 -0.955,-0.955 z"
       id="path4162"
       style="fill:#3b2626;fill-opacity:1;stroke:#ffffff;stroke-opacity:1" />
    <path
       inkscape:connector-curvature="0"
       d="m 93.264094,234.59255 c -0.732,0 -1.45,-0.354 -1.881,-1.014 -0.686,-1.037 -0.398,-2.432 0.642,-3.114 l 20.718996,-13.646 c 1.037,-0.686 2.435,-0.401 3.114,0.642 0.686,1.037 0.398,2.432 -0.642,3.114 l -20.717996,13.646 c -0.381,0.252 -0.809,0.372 -1.234,0.372 z"
       id="path4164"
       style="fill:#3b2626;fill-opacity:1;stroke:#ffffff;stroke-opacity:1" />
    <path
       inkscape:connector-curvature="0"
       d="m 123.39609,222.48955 c -0.328,0 -0.659,-0.07 -0.976,-0.226 -1.119,-0.539 -1.588,-1.884 -1.046,-3.003 0.369,-0.768 0.565,-1.644 0.565,-2.531 0,-3.223 -2.622,-5.848 -5.848,-5.851 -0.814,0 -1.6,0.161 -2.335,0.48 -1.119,0.501 -2.461,-0.021 -2.959,-1.166 -0.495,-1.14 0.026,-2.464 1.166,-2.959 1.304,-0.568 2.692,-0.855 4.131,-0.855 5.704,0.009 10.345,4.649 10.345,10.351 0,1.562 -0.352,3.114 -1.017,4.488 -0.385,0.804 -1.188,1.272 -2.026,1.272 z"
       id="path4166"
       style="fill:#3b2626;fill-opacity:1;stroke:#ffffff;stroke-opacity:1" />
    <path
       inkscape:connector-curvature="0"
       d="m 131.88109,222.79755 c -0.296,0 -0.592,-0.059 -0.879,-0.179 -1.146,-0.486 -1.679,-1.808 -1.192,-2.95 0.662,-1.562 0.999,-3.229 0.999,-4.954 0,-7.014 -5.713,-12.721 -12.735,-12.727 -1.611,0 -3.179,0.299 -4.655,0.885 -1.146,0.472 -2.464,-0.1 -2.921,-1.257 -0.46,-1.154 0.103,-2.464 1.257,-2.921 2.007,-0.803 4.137,-1.207 6.322,-1.207 9.504,0.006 17.232,7.734 17.232,17.227 0,2.335 -0.457,4.594 -1.356,6.712 -0.364,0.858 -1.199,1.371 -2.072,1.371 z"
       id="path4168"
       style="fill:#3b2626;fill-opacity:1;stroke:#ffffff;stroke-opacity:1" />
    <path
       inkscape:connector-curvature="0"
       d="m 108.26409,261.23355 c -0.434,0 -0.87,-0.129 -1.257,-0.387 -3.442,-2.326 -5.496,-6.193 -5.496,-10.342 0,-6.875 5.596,-12.467 12.475,-12.467 1.242,0 2.25,1.008 2.25,2.25 0,1.242 -1.008,2.25 -2.25,2.25 -4.397,0 -7.975,3.574 -7.975,7.967 0,2.654 1.315,5.127 3.516,6.615 1.028,0.691 1.301,2.092 0.604,3.123 -0.434,0.646 -1.143,0.991 -1.867,0.991 z"
       id="path4170"
       style="fill:#3b2626;fill-opacity:1;stroke:#ffffff;stroke-opacity:1" />
    <path
       inkscape:connector-curvature="0"
       d="m 113.98609,262.98055 c -1.242,0 -2.25,-1.008 -2.25,-2.25 0,-1.242 1.008,-2.25 2.25,-2.25 4.395,0 7.969,-3.574 7.969,-7.975 0,-2.268 -0.979,-4.439 -2.681,-5.961 -0.929,-0.826 -1.011,-2.246 -0.182,-3.176 0.823,-0.928 2.253,-1.01 3.176,-0.182 2.66,2.371 4.187,5.768 4.187,9.318 0,6.88 -5.593,12.476 -12.469,12.476 z"
       id="path4172"
       style="fill:#3b2626;fill-opacity:1;stroke:#ffffff;stroke-opacity:1" />
    <path
       inkscape:connector-curvature="0"
       d="m 88.381094,242.88055 c -0.571,0 -1.172,-0.24 -1.591,-0.658 -0.422,-0.42 -0.659,-0.99 -0.659,-1.592 0,-0.6 0.237,-1.168 0.659,-1.59 0.841,-0.838 2.341,-0.838 3.179,0 0.422,0.422 0.662,0.99 0.662,1.59 0,0.602 -0.24,1.172 -0.662,1.592 -0.419,0.418 -0.991,0.658 -1.588,0.658 z"
       id="path4174"
       style="fill:#3b2626;fill-opacity:1;stroke:#ffffff;stroke-opacity:1" />
    <path
       inkscape:connector-curvature="0"
       d="m 88.381094,249.74955 c -0.571,0 -1.172,-0.24 -1.591,-0.656 -0.422,-0.422 -0.659,-0.99 -0.659,-1.594 0,-0.6 0.237,-1.168 0.659,-1.59 0.87,-0.838 2.341,-0.838 3.179,-0.029 0.422,0.451 0.662,1.02 0.662,1.619 0,0.574 -0.24,1.172 -0.662,1.594 -0.419,0.416 -0.991,0.656 -1.588,0.656 z"
       id="path4176"
       style="fill:#3b2626;fill-opacity:1;stroke:#ffffff;stroke-opacity:1" />
    <path
       inkscape:connector-curvature="0"
       d="m 149.69651,59.76066 c 0.022,-0.075 0.045,-0.15 0.065,-0.226 1.172,-4.287 -1.329,-8.721 -5.575,-9.883 -1.668,-0.457 -3.454,-0.346 -5.047,0.295 l -22.323,-15.683 -7.471,-16.271 -15.604997,33.126 -7.041,-14.386 -25.739,56.781 h 83.058997 l -6.095,-13.275 c 0.221,0.019 0.44,0.044 0.662,0.044 3.597,0 6.779,-2.448 7.737,-5.951 0.133,-0.484 0.22,-0.976 0.261,-1.471 2.409,-0.889 4.293,-2.903 4.991,-5.457 0.745,-2.719 -0.007,-5.63 -1.879,-7.643 z m -80.767997,28.617 17.948,-39.596 4.073,8.323 -6.117,13.767 4.693,2.086 6.592,-14.835 13.166997,-27.949 26.724,58.205 H 68.928513 z m 79.107997,-21.941 c -0.462,1.688 -1.865,2.945 -3.575,3.201 l -1.758,0.264 0.208,1.766 c 0.067,0.572 0.025,1.142 -0.127,1.697 -0.523,1.914 -2.25,3.25 -4.198,3.25 -0.377,0 -0.755,-0.051 -1.123,-0.151 -0.648,-0.178 -1.219,-0.502 -1.697,-0.924 l -1.463,-3.188 -0.009,-0.38 -4.984,-10.494 -9.455,-20.595 19.032,13.371 1.02,-0.604 c 0.999,-0.593 2.202,-0.762 3.313,-0.458 2.295,0.628 3.643,3.041 3.005,5.374 -0.082,0.296 -0.195,0.588 -0.339,0.869 l -0.706,1.386 1.252,0.923 c 1.437,1.061 2.082,2.947 1.604,4.693 z"
       id="path4347"
       style="fill:#3b2626;fill-opacity:1;stroke:#ffffff;stroke-opacity:1" />
    <g
       id="g4454"
       style="fill:#3b2626;fill-opacity:1;stroke:#ffffff;stroke-opacity:1"
       transform="translate(322.15634,100.81463)">
      <path
         inkscape:connector-curvature="0"
         d="m 24.076,51.744 h -4.043 l 0.013,-21.405 c 0.001,-0.013 0.235,-2.522 -1.183,-4.09 -0.844,-0.933 -2.201,-1.405 -4.033,-1.405 -1.834,0 -3.167,0.474 -4.076,1.451 -1.577,1.696 -1.427,4.414 -1.425,4.441 l 0.006,0.146 V 51.536 H 5.29 v -20.6 C 5.259,30.267 5.193,26.335 7.792,23.541 9.483,21.722 11.851,20.8 14.829,20.8 c 3.045,0 5.422,0.934 7.065,2.774 2.407,2.695 2.252,6.276 2.181,7.092 v 21.078 z"
         id="path4456"
         style="fill:#3b2626;fill-opacity:1;stroke:#ffffff;stroke-opacity:1" />
    </g>
    <g
       id="g4458"
       style="fill:#3b2626;fill-opacity:1;stroke:#ffffff;stroke-opacity:1"
       transform="translate(322.15634,100.81463)">
      <path
         inkscape:connector-curvature="0"
         d="m 31.489,47.987 h -3.235 l 0.01,-20.956 c 0.002,-0.019 0.259,-2.696 -1.28,-4.402 -0.923,-1.024 -2.383,-1.543 -4.337,-1.543 H 21.03 v -3.235 h 1.617 c 2.925,0 5.201,0.887 6.764,2.638 2.303,2.58 2.135,6.124 2.079,6.799 v 20.699 z"
         id="path4460"
         style="fill:#3b2626;fill-opacity:1;stroke:#ffffff;stroke-opacity:1" />
    </g>
    <g
       id="g4462"
       style="fill:#3b2626;fill-opacity:1;stroke:#ffffff;stroke-opacity:1"
       transform="translate(322.15634,100.81463)">
      <path
         inkscape:connector-curvature="0"
         d="m 45.5,75.205 c -16.737,0 -45.062,-3.494 -45.062,-16.59 0,-13.096 28.325,-16.59 45.062,-16.59 16.736,0 45.062,3.494 45.062,16.59 0,13.096 -28.326,16.59 -45.062,16.59 z M 9.406,58.615 c 1.48,2.359 13.532,7.694 36.094,7.694 22.563,0 34.613,-5.335 36.094,-7.694 -1.48,-2.36 -13.531,-7.695 -36.094,-7.695 -22.562,0 -34.614,5.335 -36.094,7.695 z"
         id="path4464"
         style="fill:#3b2626;fill-opacity:1;stroke:#ffffff;stroke-opacity:1" />
    </g>
    <path
       style="opacity:0.50000000000000000;fill:#3b2626;fill-opacity:1;stroke:#ffffff;stroke-opacity:1"
       id="path4696-00"
       d="m 259.32941,143.34338 h 42.342 l -11.321,-11.321 c -1.562,-1.562 -1.562,-4.095 0,-5.657 1.562,-1.562 4.095,-1.562 5.657,0 l 18.149,18.149 c 0,0 0,0 0,0 0.186,0.186 0.352,0.392 0.499,0.611 0.06,0.089 0.1,0.187 0.152,0.279 0.075,0.135 0.156,0.266 0.216,0.41 0.048,0.117 0.074,0.238 0.111,0.358 0.04,0.129 0.089,0.255 0.116,0.39 0.04,0.204 0.054,0.411 0.062,0.618 0.002,0.055 0.016,0.106 0.016,0.162 0,0.062 -0.016,0.12 -0.018,0.181 -0.009,0.2 -0.021,0.4 -0.061,0.598 -0.028,0.143 -0.079,0.275 -0.122,0.412 -0.035,0.112 -0.059,0.226 -0.104,0.335 -0.064,0.155 -0.15,0.299 -0.233,0.443 -0.046,0.081 -0.081,0.167 -0.133,0.246 -0.148,0.223 -0.317,0.43 -0.506,0.618 l -18.144,18.144 c -0.781,0.781 -1.805,1.172 -2.829,1.172 -1.024,0 -2.047,-0.391 -2.829,-1.172 -1.562,-1.562 -1.562,-4.095 0,-5.656 l 11.321,-11.32 h -42.341 c -2.209,0 -4,-1.791 -4,-4 0,-2.209 1.791,-4 4,-4 z"
       inkscape:connector-curvature="0" />
    <path
       style="opacity:0.50000000000000000;fill:#3b2626;fill-opacity:1;stroke:#ffffff;stroke-opacity:1"
       id="path4696-6"
       d="m 419.4386,143.34338 h 42.342 l -11.321,-11.321 c -1.562,-1.562 -1.562,-4.095 0,-5.657 1.562,-1.562 4.095,-1.562 5.657,0 l 18.149,18.149 c 0,0 0,0 0,0 0.186,0.186 0.352,0.392 0.499,0.611 0.06,0.089 0.1,0.187 0.152,0.279 0.075,0.135 0.156,0.266 0.216,0.41 0.048,0.117 0.074,0.238 0.111,0.358 0.04,0.129 0.089,0.255 0.116,0.39 0.04,0.204 0.054,0.411 0.062,0.618 0.002,0.055 0.016,0.106 0.016,0.162 0,0.062 -0.016,0.12 -0.018,0.181 -0.009,0.2 -0.021,0.4 -0.061,0.598 -0.028,0.143 -0.079,0.275 -0.122,0.412 -0.035,0.112 -0.059,0.226 -0.104,0.335 -0.064,0.155 -0.15,0.299 -0.233,0.443 -0.046,0.081 -0.081,0.167 -0.133,0.246 -0.148,0.223 -0.317,0.43 -0.506,0.618 l -18.144,18.144 c -0.781,0.781 -1.805,1.172 -2.829,1.172 -1.024,0 -2.047,-0.391 -2.829,-1.172 -1.562,-1.562 -1.562,-4.095 0,-5.656 l 11.321,-11.32 h -42.341 c -2.209,0 -4,-1.791 -4,-4 0,-2.209 1.791,-4 4,-4 z"
       inkscape:connector-curvature="0" />
    <path
       style="opacity:0.50000000000000000;fill:#3b2626;fill-opacity:1;stroke:#ffffff;stroke-opacity:1"
       id="path4849"
       d="m 155.91018,169.45853 h 22.502 l -11.321,-11.321 c -1.562,-1.562 -1.562,-4.095 0,-5.657 1.562,-1.562 4.095,-1.562 5.657,0 l 18.149,18.149 c 0,0 0,0 0,0 0.186,0.186 0.352,0.392 0.499,0.611 0.06,0.089 0.1,0.187 0.152,0.279 0.075,0.135 0.156,0.266 0.216,0.41 0.048,0.117 0.074,0.238 0.111,0.358 0.04,0.129 0.089,0.255 0.116,0.39 0.04,0.204 0.054,0.411 0.062,0.618 0.002,0.055 0.016,0.106 0.016,0.162 0,0.062 -0.016,0.12 -0.018,0.181 -0.009,0.2 -0.021,0.4 -0.061,0.598 -0.028,0.143 -0.079,0.275 -0.122,0.412 -0.035,0.112 -0.059,0.226 -0.104,0.335 -0.064,0.155 -0.15,0.299 -0.233,0.443 -0.046,0.081 -0.081,0.167 -0.133,0.246 -0.148,0.223 -0.317,0.43 -0.506,0.618 l -18.144,18.144 c -0.781,0.781 -1.805,1.172 -2.829,1.172 -1.024,0 -2.047,-0.391 -2.829,-1.172 -1.562,-1.562 -1.562,-4.095 0,-5.656 l 11.321,-11.32 h -22.501 c -8.868,0 -16.083,7.215 -16.083,16.084 0,2.209 -1.791,4 -4,4 -2.209,0 -4,-1.791 -4,-4 0,-13.28 10.804,-24.084 24.083,-24.084 z"
       inkscape:connector-curvature="0" />
    <path
       style="opacity:0.50000000000000000;fill:#3b2626;fill-opacity:1;stroke:#ffffff;stroke-opacity:1"
       id="path4849-6"
       d="m 154.90002,126.42094 h 22.502 l -11.321,11.321 c -1.562,1.562 -1.562,4.095 0,5.657 1.562,1.562 4.095,1.562 5.657,0 l 18.149,-18.149 c 0,0 0,0 0,0 0.186,-0.186 0.352,-0.392 0.499,-0.611 0.06,-0.089 0.1,-0.187 0.152,-0.279 0.075,-0.135 0.156,-0.266 0.216,-0.41 0.048,-0.117 0.074,-0.238 0.111,-0.358 0.04,-0.129 0.089,-0.255 0.116,-0.39 0.04,-0.204 0.054,-0.411 0.062,-0.618 0.002,-0.055 0.016,-0.106 0.016,-0.162 0,-0.062 -0.016,-0.12 -0.018,-0.181 -0.009,-0.2 -0.021,-0.4 -0.061,-0.598 -0.028,-0.143 -0.079,-0.275 -0.122,-0.412 -0.035,-0.112 -0.059,-0.226 -0.104,-0.335 -0.064,-0.155 -0.15,-0.299 -0.233,-0.443 -0.046,-0.081 -0.081,-0.167 -0.133,-0.246 -0.148,-0.223 -0.317,-0.43 -0.506,-0.618 l -18.144,-18.144 c -0.781,-0.781 -1.805,-1.172 -2.829,-1.172 -1.024,0 -2.047,0.391 -2.829,1.172 -1.562,1.562 -1.562,4.095 0,5.656 l 11.321,11.32 h -22.501 c -8.868,0 -16.08299,-7.215 -16.08299,-16.084 0,-2.209 -1.791,-4 -4,-4 -2.209,0 -4,1.791 -4,4 0,13.28 10.804,24.084 24.08299,24.084 z"
       inkscape:connector-curvature="0" />
    <text
       xml:space="preserve"
       style="font-size:32px;font-style:normal;font-weight:normal;line-height:125%;letter-spacing:0px;word-spacing:0px;fill:#3b2626;fill-opacity:1;stroke:none;font-family:Sans"
       x="135.89311"
       y="23.665539"
       id="text3832"
       sodipodi:linespacing="125%"><tspan
         sodipodi:role="line"
         id="tspan3834"
         x="135.89311"
         y="23.665539" /></text>
    <text
       xml:space="preserve"
       style="font-size:40px;font-style:normal;font-weight:normal;line-height:125%;letter-spacing:0px;word-spacing:0px;fill:#3b2626;fill-opacity:1;stroke:none;font-family:Sans"
       x="126.80173"
       y="27.706146"
       id="text3836"
       sodipodi:linespacing="125%"><tspan
         sodipodi:role="line"
         id="tspan3838"
         x="126.80173"
         y="27.706146" /></text>
    <text
       xml:space="preserve"
       style="font-size:24px;font-style:normal;font-weight:normal;line-height:125%;letter-spacing:0px;word-spacing:0px;fill:#3b2626;fill-opacity:1;stroke:none;font-family:Sans"
       x="40.938766"
       y="17.604624"
       id="text3840"
       sodipodi:linespacing="125%"><tspan
         sodipodi:role="line"
         id="tspan3842"
         x="40.938766"
         y="17.604624">Avalanche Diode Circuit</tspan></text>
    <text
       xml:space="preserve"
       style="font-size:24px;font-style:normal;font-weight:normal;line-height:125%;letter-spacing:0px;word-spacing:0px;fill:#3b2626;fill-opacity:1;stroke:none;font-family:Sans"
       x="39.040329"
       y="289.33566"
       id="text3844"
       sodipodi:linespacing="125%"><tspan
         sodipodi:role="line"
         id="tspan3846"
         x="39.040329"
         y="289.33566">Untuned RF receiver</tspan></text>
    <text
       xml:space="preserve"
       style="font-size:24px;font-style:normal;font-weight:normal;line-height:125%;letter-spacing:0px;word-spacing:0px;fill:#3b2626;fill-opacity:1;stroke:none;font-family:Sans"
       x="180.33983"
       y="108.51835"
       id="text3848"
       sodipodi:linespacing="125%"><tspan
         sodipodi:role="line"
         id="tspan3850"
         x="180.33983"
         y="108.51835">Whitening</tspan></text>
    <text
       xml:space="preserve"
       style="font-size:24px;font-style:normal;font-weight:normal;line-height:125%;letter-spacing:0px;word-spacing:0px;fill:#3b2626;fill-opacity:1;stroke:none;font-family:Sans"
       x="307.61905"
       y="198.42192"
       id="text3852"
       sodipodi:linespacing="125%"><tspan
         sodipodi:role="line"
         id="tspan3854"
         x="307.61905"
         y="198.42192">Data Pool</tspan></text>
    <text
       xml:space="preserve"
       style="font-size:24px;font-style:normal;font-weight:normal;line-height:125%;letter-spacing:0px;word-spacing:0px;fill:#3b2626;fill-opacity:1;stroke:none;font-family:Sans"
       x="490.45663"
       y="110.84452"
       id="text3856"
       sodipodi:linespacing="125%"><tspan
         sodipodi:role="line"
         id="tspan3858"
         x="490.45663"
         y="110.84452">Results</tspan></text>
  </g>
</svg>
