<svg xmlns="http://www.w3.org/2000/svg" xmlns:xlink="http://www.w3.org/1999/xlink" version="1.1" id="Layer_1" x="0px" y="0px" width="90px" height="90px" viewBox="0 0 90 90" enable-background="new 0 0 90 90" xml:space="preserve">
<g>
	<path d="M24.076,51.744h-4.043l0.013-21.405c0.001-0.013,0.235-2.522-1.183-4.09c-0.844-0.933-2.201-1.405-4.033-1.405   c-1.834,0-3.167,0.474-4.076,1.451c-1.577,1.696-1.427,4.414-1.425,4.441l0.006,0.146v20.654H5.29v-20.6   c-0.031-0.669-0.097-4.601,2.502-7.395c1.691-1.819,4.059-2.741,7.037-2.741c3.045,0,5.422,0.934,7.065,2.774   c2.407,2.695,2.252,6.276,2.181,7.092V51.744z"/>
</g>
<g>
	<path d="M31.489,47.987h-3.235l0.01-20.956c0.002-0.019,0.259-2.696-1.28-4.402c-0.923-1.024-2.383-1.543-4.337-1.543h-1.617   v-3.235h1.617c2.925,0,5.201,0.887,6.764,2.638c2.303,2.58,2.135,6.124,2.079,6.799V47.987z"/>
</g>
<g>
	<path d="M45.5,75.205c-16.737,0-45.062-3.494-45.062-16.59c0-13.096,28.325-16.59,45.062-16.59c16.736,0,45.062,3.494,45.062,16.59   C90.562,71.711,62.236,75.205,45.5,75.205z M9.406,58.615c1.48,2.359,13.532,7.694,36.094,7.694   c22.563,0,34.613-5.335,36.094-7.694c-1.48-2.36-13.531-7.695-36.094-7.695C22.938,50.92,10.886,56.255,9.406,58.615z"/>
</g>
</svg>