<?xml version="1.0" encoding="UTF-8" standalone="no"?>
<svg
   xmlns:dc="http://purl.org/dc/elements/1.1/"
   xmlns:cc="http://creativecommons.org/ns#"
   xmlns:rdf="http://www.w3.org/1999/02/22-rdf-syntax-ns#"
   xmlns:svg="http://www.w3.org/2000/svg"
   xmlns="http://www.w3.org/2000/svg"
   xmlns:sodipodi="http://sodipodi.sourceforge.net/DTD/sodipodi-0.dtd"
   xmlns:inkscape="http://www.inkscape.org/namespaces/inkscape"
   version="1.1"
   id="Layer_1"
   x="0px"
   y="0px"
   width="100px"
   height="100px"
   viewBox="5.0 -10.0 100.0 135.0"
   enable-background="new 0 0 100 100"
   xml:space="preserve"
   inkscape:version="0.48.4 r9939"
   sodipodi:docname="noun_71764_cc.svg"><metadata
     id="metadata3019"><rdf:RDF><cc:Work
         rdf:about=""><dc:format>image/svg+xml</dc:format><dc:type
           rdf:resource="http://purl.org/dc/dcmitype/StillImage" /><dc:title></dc:title></cc:Work></rdf:RDF></metadata><defs
     id="defs3017" /><sodipodi:namedview
     pagecolor="#ffffff"
     bordercolor="#666666"
     borderopacity="1"
     objecttolerance="10"
     gridtolerance="10"
     guidetolerance="10"
     inkscape:pageopacity="0"
     inkscape:pageshadow="2"
     inkscape:window-width="1215"
     inkscape:window-height="776"
     id="namedview3015"
     showgrid="false"
     inkscape:zoom="6.17"
     inkscape:cx="50"
     inkscape:cy="50"
     inkscape:window-x="65"
     inkscape:window-y="24"
     inkscape:window-maximized="1"
     inkscape:current-layer="Layer_1" /><g
     id="g3005"
     transform="matrix(1.1707018,0,0,1.1707018,-0.85350884,-0.85350884)"><path
       d="m 34.046,27.954 c 1.733,-1.845 4.111,-2.768 7.137,-2.768 2.797,0 5.038,0.79 6.72,2.368 1.682,1.578 2.525,3.595 2.525,6.049 0,1.488 -0.305,2.694 -0.916,3.62 -0.61,0.926 -1.86,2.287 -3.751,4.083 -1.375,1.305 -2.271,2.409 -2.686,3.314 -0.415,0.905 -0.623,2.241 -0.623,4.009 h -3.746 c 0,-2.006 0.238,-3.623 0.716,-4.85 0.476,-1.228 1.537,-2.634 3.184,-4.219 l 1.716,-1.662 c 0.515,-0.478 0.934,-0.975 1.254,-1.495 0.582,-0.912 0.874,-1.859 0.874,-2.84 0,-1.375 -0.419,-2.567 -1.257,-3.577 -0.837,-1.01 -2.224,-1.516 -4.157,-1.516 -2.392,0 -4.046,0.87 -4.963,2.609 -0.516,0.968 -0.81,2.364 -0.881,4.188 h -3.746 c 10e-4,-3.031 0.866,-5.468 2.6,-7.313 z m 4.577,24.168 h 4.187 v 4.376 h -4.187 v -4.376 z"
       id="path3007"
       inkscape:connector-curvature="0" /></g><path
     d="M 79.879256,73.393568 C 85.884956,65.950246 89.148872,56.74853 89.148872,47.075022 89.148872,23.875225 70.274818,5 47.075022,5 23.874054,5 5,23.875225 5,47.075022 c 0,23.191602 18.874054,42.064485 42.075022,42.064485 9.821017,0 19.123413,-3.347037 26.628782,-9.50844 l 30.103426,30.379713 6.23282,-6.1696 L 79.879256,73.393568 z M 47.075022,84.755229 c -20.78464,0 -37.6884025,-16.902593 -37.6884025,-37.680207 0,-20.78464 16.9037625,-37.6872318 37.6884025,-37.6872318 20.775273,0 37.688402,16.9025918 37.688402,37.6872318 0,20.777614 -16.913129,37.680207 -37.688402,37.680207 z"
     id="path3009"
     inkscape:connector-curvature="0" /></svg>