<?xml version="1.0" encoding="UTF-8" standalone="no"?>
<svg
   xmlns:dc="http://purl.org/dc/elements/1.1/"
   xmlns:cc="http://creativecommons.org/ns#"
   xmlns:rdf="http://www.w3.org/1999/02/22-rdf-syntax-ns#"
   xmlns:svg="http://www.w3.org/2000/svg"
   xmlns="http://www.w3.org/2000/svg"
   xmlns:sodipodi="http://sodipodi.sourceforge.net/DTD/sodipodi-0.dtd"
   xmlns:inkscape="http://www.inkscape.org/namespaces/inkscape"
   version="1.1"
   id="Capa_1"
   x="0px"
   y="0px"
   width="100px"
   height="100px"
   viewBox="5.0 -10.0 100.0 135.0"
   enable-background="new 0 0 100 100"
   xml:space="preserve"
   inkscape:version="0.48.4 r9939"
   sodipodi:docname="skydiving.svg"><metadata
     id="metadata3233"><rdf:RDF><cc:Work
         rdf:about=""><dc:format>image/svg+xml</dc:format><dc:type
           rdf:resource="http://purl.org/dc/dcmitype/StillImage" /></cc:Work></rdf:RDF></metadata><defs
     id="defs3231" /><sodipodi:namedview
     pagecolor="#ffffff"
     bordercolor="#666666"
     borderopacity="1"
     objecttolerance="10"
     gridtolerance="10"
     guidetolerance="10"
     inkscape:pageopacity="0"
     inkscape:pageshadow="2"
     inkscape:window-width="952"
     inkscape:window-height="522"
     id="namedview3229"
     showgrid="false"
     inkscape:zoom="2.36"
     inkscape:cx="50"
     inkscape:cy="50"
     inkscape:window-x="960"
     inkscape:window-y="20"
     inkscape:window-maximized="0"
     inkscape:current-layer="Capa_1" /><g
     id="Capa_33"
     display="none" /><path
     d="M 31.287669,18.361084 28.767344,17.45712 26.158934,21.124733 18.613828,17.372555 22.712531,3.2554161 18.870145,1.8776011 13.226393,15.153471 7.0771484,13.606527 6.7010044,14.490078 c -0.664205,-0.02041 -1.429983,-0.0036 -1.507752,0.181522 -0.07777,0.18298 0.472958,0.673599 0.975277,1.071634 l -0.353925,0.830334 5.6651776,2.69075 -5.6453386,13.277328 3.842386,1.377815 7.4022656,-12.931781 8.315647,1.939148 -0.787999,4.3208 2.518739,0.903963 1.86485,-4.38641 1.169698,0.273376 0.325357,-0.763994 -1.061775,-0.527799 1.864057,-4.38568 z"
     id="path3211"
     inkscape:connector-curvature="0" /><g
     id="g3213"
     transform="matrix(1.3500691,0,0,1.2402494,-10.066838,-3.4322035)"><g
       id="g3215"><path
         d="m 80.034,73.684 c 3.103,-2.375 3.688,-6.824 1.31,-9.925 -2.39,-3.11 -6.836,-3.692 -9.936,-1.31 -3.104,2.383 -3.688,6.82 -1.299,9.929 2.381,3.102 6.825,3.686 9.925,1.306 z"
         id="path3217"
         inkscape:connector-curvature="0" /><path
         d="m 90.116,79.596 -13.692,1.53 -7.613,-5.132 c 0.512,-3.826 -3.035,-7.828 -5.17,-10.951 l 1.92,6.936 C 65.514,71.938 65.473,71.889 65.423,71.85 L 61.604,62.294 66.875,46.901 62.988,45.325 55.602,61.16 c -0.291,0.717 -0.295,1.52 -0.008,2.236 l 3.17,7.933 c -0.002,0.003 -0.008,0.004 -0.012,0.006 l -9.126,5.188 7.817,-5.849 -2.948,-6.839 c -0.042,-0.104 -0.062,-0.209 -0.093,-0.313 -3.962,1.392 -8.59,4.068 -12.811,6.824 -5.44,3.553 -5.431,8.93 -4.734,12.315 L 27.356,85.654 12.344,75.53 9.148,79.685 15,84.73 l 15.526,6.043 8.06,-2.926 -7.984,4.227 -16.35,-6.361 -2.209,4.754 17.089,9.184 c 0.501,0.232 1.04,0.351 1.578,0.351 0.604,0 1.205,-0.146 1.752,-0.437 l 15.482,-8.303 -0.005,-0.009 c 0.052,-0.026 0.107,-0.049 0.161,-0.078 l 16.575,-9.423 c 0.347,-0.195 0.664,-0.426 0.953,-0.678 l 8.455,5.697 c 0.498,0.336 1.08,0.512 1.673,0.512 0.176,0 0.352,-0.016 0.527,-0.047 l 14.568,-3.514 -0.735,-4.126 z"
         id="path3219"
         inkscape:connector-curvature="0" /></g><path
       d="m 46.366,46.089 c 0.322,0.754 0.704,1.493 0.983,2.276 0.299,0.772 0.606,1.541 0.835,2.32 0.261,0.77 0.486,1.535 0.655,2.287 0.092,0.373 0.185,0.74 0.274,1.1 0.064,0.363 0.126,0.72 0.187,1.066 0.12,0.691 0.248,1.34 0.28,1.951 0.056,0.605 0.105,1.161 0.15,1.652 0,0.492 0.001,0.922 0.002,1.273 10e-4,0.42 0.002,0.715 0.002,0.9 l 2.214,-1.538 C 51.923,59.119 51.896,58.844 51.869,58.539 51.775,58.018 51.67,57.426 51.555,56.782 51.46,56.136 51.268,55.457 51.076,54.737 50.98,54.379 50.881,54.009 50.781,53.633 c -0.127,-0.367 -0.258,-0.744 -0.389,-1.127 -0.247,-0.769 -0.551,-1.544 -0.891,-2.317 -0.309,-0.786 -0.694,-1.55 -1.073,-2.316 -0.356,-0.775 -0.812,-1.499 -1.208,-2.237 -0.428,-0.72 -0.863,-1.418 -1.295,-2.084 -0.886,-1.322 -1.754,-2.521 -2.556,-3.503 -1.58,-1.984 -2.803,-3.147 -2.803,-3.147 0,0 1.116,1.267 2.504,3.366 0.706,1.04 1.458,2.3 2.211,3.669 0.367,0.695 0.731,1.416 1.085,2.152 z"
       id="path3221"
       inkscape:connector-curvature="0" /><path
       d="m 44.714,60.405 c 0.055,0.604 0.105,1.159 0.15,1.653 0,0.491 0.001,0.92 0.002,1.273 10e-4,0.477 0.002,0.798 0.002,0.968 l 2.218,-1.541 c -0.025,-0.276 -0.053,-0.569 -0.083,-0.901 -0.094,-0.523 -0.199,-1.113 -0.314,-1.756 -0.095,-0.646 -0.29,-1.326 -0.481,-2.045 -0.095,-0.359 -0.194,-0.729 -0.295,-1.104 -0.127,-0.368 -0.257,-0.745 -0.388,-1.127 -0.248,-0.771 -0.55,-1.544 -0.892,-2.318 -0.309,-0.784 -0.695,-1.55 -1.072,-2.315 -0.356,-0.774 -0.814,-1.499 -1.208,-2.236 -0.429,-0.72 -0.863,-1.419 -1.297,-2.085 -0.885,-1.321 -1.753,-2.521 -2.556,-3.504 -1.578,-1.982 -2.802,-3.146 -2.802,-3.146 0,0 1.115,1.267 2.503,3.366 0.708,1.04 1.459,2.299 2.211,3.669 0.368,0.69 0.731,1.412 1.087,2.149 0.321,0.754 0.703,1.493 0.981,2.276 0.3,0.772 0.608,1.541 0.837,2.32 0.26,0.771 0.486,1.535 0.654,2.288 0.093,0.372 0.184,0.739 0.273,1.099 0.065,0.363 0.126,0.721 0.188,1.065 0.123,0.692 0.249,1.342 0.282,1.952 z"
       id="path3223"
       inkscape:connector-curvature="0" /></g></svg>